<svg xmlns="http://www.w3.org/2000/svg" id="Layer_1" data-name="Layer 1" viewBox="0 0 1080 970"><defs><style>.cls-1{fill:#231f20}</style></defs><path d="M970.11 114.2V18.97H839.57c-8.93 12.57-17.86 25.15-26.79 37.72v57.51h-59.61c-80.93-59.33-179.29-90.7-284.58-90.7-58.62 0-116.68 12.26-172.56 36.45-53.84 23.3-102.78 56.35-145.45 98.22-42.84 42.03-76.65 90.31-100.49 143.48-24.91 55.54-37.53 113.52-37.53 172.32 0 70.76 12.69 137.41 37.72 198.12 23.83 57.79 58.22 108.85 102.22 151.77 86.72 84.59 204.41 131.18 331.38 131.18 84.85 0 164.68-23.04 237.33-68.5l60.41 57.6 152.9-155.79-57.62-60.44c21.61-37.59 38.07-76.02 48.95-114.28 11.17-39.29 16.84-79.72 16.84-120.18 0-43.69-5.79-86.59-17.19-127.99h9.42l35.16-29.34v-65.89h58.14c11.72-9.78 23.44-19.56 35.17-29.33V114.2h-93.31ZM703.27 557.35l-2.04 5.82-50.33-47.45-143.39 144.73 48.79 53.09-5.68 2.03c-19.56 6.99-40.34 9.97-69.5 9.97-64.18 0-124-23.3-168.45-65.6-22.59-21.5-40.27-47.04-52.54-75.9-12.92-30.38-19.46-63.67-19.46-98.95 0-30.98 6.45-61.29 19.16-90.06 12.13-27.45 29.36-52.27 51.23-73.78 44.11-43.38 103.05-68.26 161.71-68.26 66.27 0 128.23 25.99 174.46 73.18 42.82 43.71 67.38 100.62 67.38 156.14 0 22.14-1.37 46.55-11.35 75.04Zm351.77-324.84h-93.31v95.23H847.96v-95.23h-93.31V122.58h93.31V27.35h113.77v95.23h93.31v109.93Z" class="cls-1"/><path d="M975.11 114.2V18.97c0-2.7-2.29-5-5-5H843.73c-2.68 0-5.51-.42-7.7 1.46-2.56 2.21-4.64 6.44-6.6 9.21l-6.99 9.84-13.98 19.68 4.32-2.48c-2.7 0-5 2.29-5 5v57.51l5-5h-56.69c-.68 0-1.89.23-2.54 0s.38-.05.2-.17c1.23.81-.89-1.22-.86-1.19-.99-.99-2.4-1.72-3.54-2.53a458.521 458.521 0 0 0-43.31-27.14c-61-33.65-129.15-53.02-198.53-58.22-76.24-5.71-151.7 7.38-221.38 38.96-65.36 29.62-123.77 74.33-170.08 129.09-47.1 55.68-81.83 122.25-98.04 193.5-16.65 73.2-12.83 151.3 5.19 223.91 17.16 69.14 49.37 134.3 95.16 188.96 42.71 50.98 96.82 92.24 157.09 120.3 60.88 28.35 127.43 43.37 194.51 45.18 71.48 1.93 142.46-12.52 207.06-43.31 16.06-7.66 31.63-16.27 46.73-25.68l-6.06-.78c20.14 19.2 40.27 38.4 60.41 57.6 1.94 1.85 5.14 1.97 7.07 0 17.28-17.61 34.57-35.22 51.85-52.83l82.17-83.73c6.29-6.41 12.58-12.82 18.88-19.23 1.92-1.96 1.88-5.1 0-7.07-19.21-20.15-38.42-40.29-57.62-60.44l.78 6.06c24.39-42.6 43.66-88.32 54.82-136.2 11.36-48.72 14.21-99.07 9.3-148.82a491.81 491.81 0 0 0-15.01-81.28l-4.82 6.33c3.05 0 6.32.35 9.35 0 3.41-.4 5.86-3.35 8.4-5.46 3.46-2.89 6.93-5.78 10.39-8.67s6.93-5.78 10.39-8.67c3.09-2.58 8.33-5.49 10.37-9.01.89-1.54.68-3.48.68-5.19v-63.23l-5 5h44.6c4.72 0 12.3 1.45 16.57-1.07 3.61-2.13 6.87-5.7 10.1-8.39 4-3.33 7.99-6.67 11.99-10l11.19-9.33c2.04-1.71 3.55-2.91 3.86-5.64.38-3.26 0-6.8 0-10.07V114.21c0-2.7-2.29-5-5-5H970.1c-6.43 0-6.45 10 0 10h93.31l-5-5v126.7l1.46-3.54c-11.72 9.78-23.44 19.56-35.17 29.33l3.54-1.46H970.1c-2.7 0-5 2.29-5 5v65.89l1.46-3.54-35.16 29.34 3.54-1.46h-9.42c-3.25 0-5.68 3.2-4.82 6.33 25.55 93.57 22.18 192.98-12.38 283.79-9.84 25.87-21.98 50.8-35.72 74.81-1.13 1.97-.76 4.44.78 6.06 19.21 20.15 38.42 40.29 57.62 60.44v-7.07c-17.28 17.61-34.57 35.22-51.85 52.83l-82.17 83.73c-6.29 6.41-12.58 12.82-18.88 19.23h7.07c-20.14-19.2-40.27-38.4-60.41-57.6-1.57-1.5-4.15-1.97-6.06-.78-60.21 37.51-128.31 60.91-199.15 66.44-66.74 5.2-134.83-3.71-197.98-25.91-60.7-21.33-116.74-55.52-163.14-100.11-50.08-48.13-88.17-107.82-111.52-173.2-24.56-68.74-34.7-144.78-27.19-217.49 7.49-72.59 35.26-142.44 76.79-202.22 40.2-57.86 93.68-106.77 154.8-141.79 64.84-37.15 138.52-58.74 213.42-59.42 68.68-.62 137.76 12.67 200.62 40.58a460.264 460.264 0 0 1 66.76 36.52c3.38 2.23 6.73 4.51 10.05 6.83 3.02 2.11 6.69 5.93 10.34 6.67 4.97 1 10.94.09 15.97.09h44.31c2.7 0 5-2.29 5-5V56.72l-5 5c3.37 0 4.96-3.38 6.65-5.76l8.15-11.48 16.3-22.96-4.32 2.48H970.1l-5-5v95.23c0 6.43 10 6.45 10 0Z" class="cls-1"/><path d="m698.45 556.02-2.04 5.82 8.36-2.21-50.33-47.45c-1.96-1.85-5.12-1.97-7.07 0l-48.53 48.98-77.01 77.73c-5.95 6.01-11.9 12.01-17.85 18.02-1.96 1.98-1.84 5.07 0 7.07 16.26 17.7 32.53 35.39 48.79 53.09l2.21-8.36c-34.13 12.2-70.72 14.37-106.6 9.76-38.58-4.96-75.86-19.23-107.59-41.78-70.25-49.94-105.98-139.67-92.62-224.58 13.23-84.06 75.98-155.89 156.38-182.78 74.79-25.01 159.93-7.09 220.34 43.03 31.26 25.94 56.42 59.75 70.94 97.78s17.3 75.98 10.81 114.19c-1.83 10.78-4.63 21.34-8.19 31.68-2.1 6.1 7.56 8.72 9.64 2.66 13.55-39.31 15.42-83.98 5.69-124.4s-31.64-78.77-60.63-109.18c-56.53-59.3-142.28-88.76-223.15-72.85-85.13 16.75-157.53 82.04-183.77 164.6-27.27 85.81-1.57 186.09 64.06 247.7 29.7 27.88 66.47 47.75 105.89 57.86 20.1 5.15 40.88 7.83 61.62 8.09s42.02-1.01 62.2-6.41c5.98-1.6 11.8-3.67 17.62-5.75 3.58-1.28 4.87-5.46 2.21-8.36-16.26-17.7-32.53-35.39-48.79-53.09v7.07l48.53-48.98 77.01-77.73c5.95-6.01 11.9-12.01 17.85-18.02h-7.07l50.33 47.45c2.86 2.7 7.11 1.36 8.36-2.21l2.04-5.82c2.13-6.09-7.53-8.7-9.64-2.66Zm356.59-328.51h-93.31c-2.7 0-5 2.29-5 5v95.23l5-5H847.96l5 5v-95.23c0-2.7-2.29-5-5-5h-93.31l5 5V122.58l-5 5h93.31c2.7 0 5-2.29 5-5V27.35l-5 5h113.77l-5-5v95.23c0 2.7 2.29 5 5 5h93.31l-5-5v109.93c0 6.43 10 6.45 10 0V122.58c0-2.7-2.29-5-5-5h-93.31l5 5V27.35c0-2.7-2.29-5-5-5H847.96c-2.7 0-5 2.29-5 5v95.23l5-5h-93.31c-2.7 0-5 2.29-5 5v109.93c0 2.7 2.29 5 5 5h93.31l-5-5v95.23c0 2.7 2.29 5 5 5h113.77c2.7 0 5-2.29 5-5v-95.23l-5 5h93.31c6.43 0 6.45-10 0-10Z" class="cls-1"/></svg>